<?xml version="1.0" encoding="utf-8"?>
<!-- Generator: Adobe Illustrator 16.0.0, SVG Export Plug-In . SVG Version: 6.00 Build 0)  -->
<!DOCTYPE svg PUBLIC "-//W3C//DTD SVG 1.1//EN" "http://www.w3.org/Graphics/SVG/1.1/DTD/svg11.dtd">
<svg version="1.1" id="Layer_1" xmlns="http://www.w3.org/2000/svg" xmlns:xlink="http://www.w3.org/1999/xlink" x="0px" y="0px"
	 width="145px" height="145px" viewBox="0 0 145 145" enable-background="new 0 0 145 145" xml:space="preserve">
<circle fill="none" stroke="#FFFFFF" stroke-width="7" stroke-miterlimit="10" cx="72.5" cy="72.5" r="67.25"/>
<rect x="-319.5" y="-225.5" fill="none" width="97.605" height="108.157"/>
<path fill="#FFFFFF" d="M72.209,18h1.763c0.202,0.049,0.403,0.102,0.606,0.146c5.084,1.092,7.484,6.872,4.666,11.23
	c-0.066,0.102-0.123,0.21-0.221,0.38c0.246,0,0.42,0,0.594,0c2.186,0,4.371-0.007,6.557,0.002c2.824,0.012,5.121,1.797,5.808,4.542
	c1.709,6.83,3.401,13.664,5.104,20.496c0.353,1.415,0.719,2.827,1.079,4.24v1.665c-0.032,0.089-0.079,0.176-0.097,0.269
	c-0.525,2.771-2.927,4.813-5.736,4.815c-12.83,0.009-25.662,0.013-38.492-0.001c-3.758-0.004-6.577-3.601-5.669-7.247
	c2.014-8.085,4.054-16.164,6.107-24.238c0.719-2.829,2.979-4.536,5.906-4.542c2.138-0.004,4.277-0.001,6.416-0.001
	c0.167,0,0.335,0,0.579,0c-0.117-0.183-0.175-0.276-0.235-0.369c-2.563-3.94-0.853-9.229,3.538-10.905
	C71.037,18.269,71.632,18.158,72.209,18 M81.914,49.244c-0.375,1.288-1.049,2.202-2.332,2.545c-2.78,0.743-5.533-2.035-4.865-4.903
	c0.652-2.806,3.729-4.081,6.241-2.587c0.83,0.494,1.698,0.336,2.141-0.387c0.454-0.743,0.22-1.583-0.603-2.092
	c-1.419-0.879-2.953-1.285-4.621-1.019c-2.957,0.473-5.018,2.093-5.864,4.982c-0.85,2.902-0.037,5.423,2.248,7.403
	c2.329,2.018,5.851,2.199,8.151,0.442c1.951-1.491,2.612-3.595,2.602-5.949c-0.003-0.803-0.677-1.361-1.503-1.372
	c-1.061-0.015-2.122-0.012-3.183-0.001c-0.91,0.008-1.563,0.632-1.561,1.47c0.002,0.836,0.652,1.45,1.566,1.467
	C80.838,49.251,81.343,49.244,81.914,49.244 M64.083,50.625c0.249,0.236,0.4,0.378,0.549,0.522c1.092,1.054,2.186,2.104,3.273,3.163
	c0.372,0.362,0.798,0.573,1.321,0.485c0.574-0.096,0.996-0.413,1.168-0.983c0.181-0.596,0.041-1.123-0.415-1.562
	c-1.481-1.425-2.958-2.855-4.442-4.276c-0.139-0.133-0.321-0.22-0.512-0.348c1.574-1.448,3.028-2.781,4.475-4.122
	c0.694-0.644,0.765-1.549,0.186-2.167c-0.571-0.612-1.484-0.601-2.181,0.037c-0.987,0.902-1.968,1.812-2.953,2.717
	c-0.126,0.116-0.261,0.222-0.382,0.325c-0.048-0.033-0.072-0.042-0.073-0.051c-0.006-0.685-0.009-1.37-0.016-2.055
	c-0.01-0.906-0.623-1.575-1.45-1.587c-0.815-0.012-1.48,0.661-1.482,1.558c-0.009,3.653-0.009,7.307-0.001,10.961
	c0.002,0.904,0.643,1.576,1.461,1.581c0.84,0.004,1.466-0.679,1.471-1.615C64.086,52.395,64.083,51.582,64.083,50.625
	 M73.063,29.755c2.408,0.012,4.404-1.953,4.434-4.362s-1.985-4.443-4.403-4.445c-2.396-0.002-4.4,1.994-4.409,4.391
	S70.665,29.744,73.063,29.755"/>
<g>
	<path fill="#FFFFFF" d="M42.083,81.62c-0.52,0-0.952-0.168-1.296-0.504c-0.344-0.337-0.516-0.845-0.516-1.524v-3.804h0.972v3.647
		c0,0.513,0.1,0.873,0.3,1.08c0.2,0.209,0.48,0.313,0.84,0.313c0.28,0,0.546-0.082,0.798-0.246s0.442-0.406,0.57-0.727v-4.067h0.972
		V81.5h-0.636l-0.204-1.38c-0.112,0.504-0.328,0.88-0.648,1.128C42.915,81.496,42.531,81.62,42.083,81.62z"/>
	<path fill="#FFFFFF" d="M47.735,80.275v3.301h-0.972v-7.788h0.648l0.204,1.38c0.224-1,0.852-1.5,1.884-1.5
		c0.672,0,1.208,0.271,1.608,0.816c0.4,0.544,0.6,1.26,0.6,2.147c0,0.976-0.21,1.718-0.63,2.226
		c-0.42,0.509-0.934,0.763-1.542,0.763C48.599,81.62,47.999,81.172,47.735,80.275z M49.163,76.46c-0.688,0-1.164,0.328-1.428,0.983
		v2.353c0.128,0.345,0.324,0.603,0.588,0.774s0.532,0.258,0.804,0.258c0.464,0,0.84-0.184,1.128-0.553
		c0.288-0.367,0.432-0.92,0.432-1.655c0-0.696-0.142-1.229-0.426-1.603C49.977,76.646,49.611,76.46,49.163,76.46z"/>
	<path fill="#FFFFFF" d="M55.054,81.62c-0.896,0-1.344-0.513-1.344-1.536V76.52h-0.924v-0.731h0.528c0.32,0,0.48-0.151,0.48-0.456
		V74.9l0.888-1.393v2.28h1.188v0.731h-1.188v3.42c0,0.345,0.046,0.58,0.138,0.709c0.092,0.127,0.242,0.191,0.45,0.191
		c0.192,0,0.388-0.039,0.588-0.119l0.192,0.635C55.786,81.531,55.454,81.62,55.054,81.62z"/>
	<path fill="#FFFFFF" d="M61.468,80.87c-0.476,0.5-1.094,0.75-1.854,0.75c-0.76,0-1.378-0.25-1.854-0.75s-0.714-1.242-0.714-2.226
		c0-0.984,0.238-1.727,0.714-2.227s1.094-0.75,1.854-0.75c0.76,0,1.378,0.25,1.854,0.75s0.714,1.242,0.714,2.227
		C62.182,79.628,61.944,80.37,61.468,80.87z M59.602,80.828c0.472,0,0.85-0.182,1.134-0.546c0.284-0.364,0.426-0.91,0.426-1.638
		c0-0.729-0.142-1.274-0.426-1.639c-0.284-0.363-0.662-0.546-1.134-0.546c-0.464,0-0.836,0.183-1.116,0.546
		c-0.28,0.364-0.42,0.91-0.42,1.639c0,0.728,0.14,1.273,0.42,1.638C58.766,80.646,59.138,80.828,59.602,80.828z"/>
	<path fill="#FFFFFF" d="M49.234,108.7h-2.88V91.133c-0.624,0.504-1.458,0.971-2.502,1.403s-2.058,0.673-3.042,0.72v-2.627
		c1.416-0.121,2.67-0.6,3.762-1.441c1.092-0.84,1.806-1.859,2.142-3.059h2.52V108.7z"/>
	<path fill="#FFFFFF" d="M59.674,108.7h-3.708v-3.78h3.708V108.7z"/>
	<path fill="#FFFFFF" d="M69.719,108.7h-3.312c0-4.151,0.642-7.95,1.926-11.394c1.284-3.443,3.09-6.295,5.417-8.551H62.051v-2.627
		h15.084v2.051c-2.592,2.497-4.524,5.748-5.796,9.756C70.066,101.944,69.526,105.532,69.719,108.7z"/>
	<path fill="#FFFFFF" d="M88.078,109.133c-2.496,0-4.488-0.967-5.976-2.898c-1.488-1.932-2.231-4.865-2.231-8.803
		c0-3.959,0.743-6.905,2.231-8.838c1.487-1.932,3.479-2.897,5.976-2.897c2.473,0,4.459,0.966,5.959,2.897
		c1.5,1.933,2.25,4.879,2.25,8.838c0,3.938-0.75,6.871-2.25,8.803S90.551,109.133,88.078,109.133z M88.078,106.612
		c3.408,0,5.113-3.06,5.113-9.181c0-6.096-1.705-9.144-5.113-9.144s-5.111,3.048-5.111,9.144
		C82.967,103.553,84.67,106.612,88.078,106.612z"/>
	<path fill="#FFFFFF" d="M107.802,108.7h-1.68V97.6h-3.979V96.16h9.64V97.6h-3.98V108.7z"/>
</g>
</svg>
