<?xml version="1.0" encoding="utf-8"?>
<!-- Generator: Adobe Illustrator 27.8.0, SVG Export Plug-In . SVG Version: 6.00 Build 0)  -->
<!DOCTYPE svg PUBLIC "-//W3C//DTD SVG 1.1//EN" "http://www.w3.org/Graphics/SVG/1.1/DTD/svg11.dtd" [
	<!ENTITY ns_extend "http://ns.adobe.com/Extensibility/1.0/">
	<!ENTITY ns_ai "http://ns.adobe.com/AdobeIllustrator/10.0/">
	<!ENTITY ns_graphs "http://ns.adobe.com/Graphs/1.0/">
	<!ENTITY ns_vars "http://ns.adobe.com/Variables/1.0/">
	<!ENTITY ns_imrep "http://ns.adobe.com/ImageReplacement/1.0/">
	<!ENTITY ns_sfw "http://ns.adobe.com/SaveForWeb/1.0/">
	<!ENTITY ns_custom "http://ns.adobe.com/GenericCustomNamespace/1.0/">
	<!ENTITY ns_adobe_xpath "http://ns.adobe.com/XPath/1.0/">
]>
<svg version="1.1" id="Layer_1" xmlns="http://www.w3.org/2000/svg" xmlnsxlink="http://www.w3.org/1999/xlink" x="0px" y="0px"
	 width="145px" height="145px" viewBox="0 0 145 145" enable-background="new 0 0 145 145" xml:space="preserve">
<circle fill="none" stroke="#FFFFFF" stroke-width="7" stroke-miterlimit="10" cx="72.5" cy="72.5" r="67.25"/>
<style type="text/css">
	.st1{fill:#FFFFFF;}
</style>
<rect x="-319.5" y="-225.5" fill="none" width="97.605" height="108.157"/>
<g>
	<g>
		<path class="st1" d="M49,113.9h-4.4v-11.3h4.1c2.6,0,3.9,1,3.9,3c0,0.7-0.2,1.3-0.7,1.7c-0.4,0.5-1,0.8-1.7,0.8
			c0.9,0,1.6,0.3,2.1,0.7c0.5,0.4,0.7,1.1,0.7,1.9C52.9,112.8,51.6,113.9,49,113.9z M48.7,107.5c1.5,0,2.3-0.7,2.3-1.9
			c0-1.2-0.8-1.8-2.3-1.8H46v3.7L48.7,107.5L48.7,107.5z M48.9,112.6c0.8,0,1.4-0.1,1.8-0.4c0.4-0.3,0.6-0.8,0.6-1.5
			c0-0.7-0.2-1.1-0.6-1.4c-0.4-0.3-1-0.5-1.8-0.5H46v3.8C46,112.6,48.9,112.6,48.9,112.6z"/>
		<path class="st1" d="M56.9,113.9h-1.5v-8.6h1l0.3,2.4c0.1-0.9,0.4-1.5,0.8-1.9s0.9-0.6,1.5-0.6c0.3,0,0.5,0,0.9,0.1l-0.1,1.3
			c-0.2,0-0.4-0.1-0.7-0.1c-0.3,0-0.5,0-0.7,0.1c-0.2,0.1-0.5,0.2-0.8,0.5s-0.5,0.6-0.6,1C56.9,108.1,56.9,113.9,56.9,113.9z"/>
		<path class="st1" d="M68.1,114.1c-0.5,0-0.9-0.2-1.2-0.5s-0.4-0.8-0.3-1.4l0-0.5c-0.2,0.8-0.6,1.3-1.2,1.7
			c-0.6,0.4-1.2,0.6-1.9,0.6c-0.7,0-1.3-0.2-1.7-0.6c-0.4-0.4-0.7-0.9-0.7-1.5c0-0.9,0.4-1.6,1.2-2.1s1.9-0.8,3.2-0.9l1-0.1
			c0-0.1,0-0.2,0-0.4c0-0.2,0-0.3,0-0.4c0-1.2-0.6-1.8-1.8-1.8c-0.6,0-1,0.1-1.3,0.4c-0.3,0.3-0.5,0.7-0.5,1.2c0,0.1,0,0.2,0,0.4
			l-1.3,0.1c0-0.2-0.1-0.3-0.1-0.6c0-0.8,0.3-1.4,0.9-2c0.6-0.5,1.4-0.8,2.3-0.8c1,0,1.8,0.3,2.4,0.8c0.6,0.5,0.9,1.3,0.9,2.3
			c0,0.4,0,1,0,2c0,1,0,1.6,0,2c0,0.6,0.2,0.9,0.6,0.9c0.2,0,0.3,0,0.5-0.1l0.2,0.9C68.9,114,68.5,114.1,68.1,114.1z M66.5,109.8
			l-0.8,0.1c-2,0.2-3,0.8-3,1.9c0,0.4,0.1,0.6,0.3,0.9c0.2,0.2,0.5,0.3,0.9,0.3c0.5,0,1-0.1,1.4-0.4c0.4-0.3,0.8-0.6,1.2-1.1
			L66.5,109.8z"/>
		<path class="st1" d="M72.5,113.9h-1.5v-12.1h0.5c0.4,0,0.7,0,0.9-0.1v7.7l3.7-4.1H78l-3.3,3.6l3.4,5h-1.8l-2.7-4l-1.1,1.1
			L72.5,113.9L72.5,113.9z"/>
		<path class="st1" d="M81.6,103.4H80v-1.6h1.6V103.4z M81.6,113.9h-1.5v-8.6h1.5V113.9z"/>
		<path class="st1" d="M91.4,113.9H90v-5.4c0-1.4-0.6-2.1-1.8-2.1c-1,0-1.7,0.5-2.1,1.5v6.1h-1.5v-8.6h1l0.3,2.1
			c0.3-1.5,1.3-2.2,2.8-2.2c0.8,0,1.4,0.3,2,0.8c0.5,0.5,0.8,1.3,0.8,2.4L91.4,113.9L91.4,113.9z"/>
		<path class="st1" d="M97.6,117.2c-1.3,0-2.3-0.2-3.1-0.5c-0.8-0.3-1.2-0.9-1.2-1.6c0-0.4,0.2-0.8,0.6-1.1c0.4-0.3,1-0.5,1.8-0.6
			c-0.6-0.1-1-0.3-1.4-0.6c-0.3-0.3-0.5-0.6-0.5-1c0-0.3,0.1-0.7,0.4-0.9c0.3-0.3,0.6-0.5,1-0.6c-0.9-0.5-1.4-1.3-1.4-2.4
			c0-0.9,0.3-1.5,1-2.1c0.7-0.5,1.5-0.8,2.4-0.8c0.7,0,1.3,0.1,1.8,0.4c0.1-1.1,0.8-1.6,1.9-1.6c0.3,0,0.5,0,0.7,0.1l-0.1,1.3
			c-0.2,0-0.4-0.1-0.6-0.1c-0.8,0-1.3,0.1-1.5,0.4c0.8,0.5,1.3,1.3,1.3,2.3c0,0.9-0.3,1.6-1,2.1c-0.7,0.5-1.5,0.7-2.4,0.7
			c-0.6,0-1.1-0.1-1.6-0.3c-0.4,0.2-0.6,0.5-0.6,0.8c0,0.6,0.7,0.9,2,0.9h1.3c1.1,0,1.9,0.2,2.5,0.6c0.6,0.4,0.9,1,0.9,1.7
			c0,0.8-0.4,1.5-1.2,1.9C99.8,117,98.8,117.2,97.6,117.2z M97.5,116.3c1.9,0,2.8-0.5,2.8-1.5c0-0.9-0.8-1.3-2.4-1.3h-0.8
			c-0.7,0-1.3,0.1-1.7,0.4s-0.6,0.6-0.6,1c0,0.4,0.2,0.8,0.7,1C95.9,116.2,96.6,116.3,97.5,116.3z M97.4,109.8c0.6,0,1-0.2,1.4-0.5
			s0.5-0.8,0.5-1.4c0-0.6-0.2-1-0.5-1.3c-0.4-0.3-0.8-0.5-1.4-0.5c-0.6,0-1,0.2-1.4,0.5c-0.4,0.3-0.5,0.8-0.5,1.3
			c0,0.6,0.2,1.1,0.5,1.4C96.4,109.7,96.8,109.8,97.4,109.8z"/>
	</g>
	<g>
		<path class="st1" d="M24.7,93.5h-1.5V82.2h4.3c1.2,0,2.1,0.2,2.8,0.7c0.7,0.5,1.1,1.3,1.1,2.4c0,0.7-0.3,1.4-0.9,1.9
			c-0.6,0.5-1.4,0.8-2.3,0.9c0.7,0,1.2,0.2,1.7,0.5c0.4,0.3,0.7,0.6,0.9,1.1c0.2,0.4,0.3,0.9,0.4,1.3s0.2,0.9,0.3,1.4
			s0.3,0.8,0.5,1.1h-1.6c-0.2-0.2-0.3-0.5-0.4-0.9s-0.2-0.8-0.3-1.3c-0.1-0.4-0.2-0.8-0.4-1.3s-0.4-0.8-0.8-1s-0.9-0.4-1.4-0.4h-2.3
			L24.7,93.5L24.7,93.5z M27.3,87.4c0.7,0,1.3-0.2,1.8-0.5c0.5-0.3,0.7-0.8,0.7-1.6c0-1.2-0.8-1.9-2.5-1.9h-2.6v3.9L27.3,87.4
			L27.3,87.4z"/>
		<path class="st1" d="M37.6,93.7c-1.2,0-2.1-0.4-2.8-1.1s-1.1-1.9-1.1-3.3c0-1.5,0.4-2.6,1.1-3.3c0.7-0.8,1.6-1.1,2.8-1.1
			c1.2,0,2.1,0.4,2.7,1.1s0.9,1.7,0.9,2.9c0,0.3,0,0.5-0.1,0.8h-5.9c0.1,2,0.9,3,2.4,3c0.5,0,0.9-0.2,1.3-0.5s0.6-0.7,0.7-1.3
			l1.3,0.3c-0.1,0.8-0.4,1.4-1,1.9S38.5,93.7,37.6,93.7z M37.5,85.9c-0.6,0-1.1,0.2-1.5,0.6c-0.4,0.4-0.7,1.1-0.8,1.9h4.5
			c0-0.8-0.2-1.4-0.6-1.9C38.7,86.1,38.2,85.9,37.5,85.9z"/>
		<path class="st1" d="M46.9,96.8c-1.3,0-2.3-0.2-3.1-0.5s-1.2-0.9-1.2-1.6c0-0.4,0.2-0.8,0.6-1.1c0.4-0.3,1-0.5,1.8-0.6
			c-0.6-0.1-1-0.3-1.3-0.6c-0.3-0.3-0.5-0.6-0.5-1c0-0.3,0.1-0.7,0.4-0.9c0.3-0.3,0.6-0.5,1-0.6c-0.9-0.5-1.4-1.3-1.4-2.4
			c0-0.9,0.3-1.5,1-2.1c0.7-0.5,1.5-0.8,2.4-0.8c0.7,0,1.3,0.1,1.8,0.4c0.1-1.1,0.8-1.6,1.9-1.6c0.3,0,0.5,0,0.7,0.1l-0.1,1.3
			c-0.2,0-0.4-0.1-0.6-0.1c-0.8,0-1.3,0.1-1.5,0.4c0.8,0.5,1.3,1.3,1.3,2.3c0,0.9-0.3,1.6-1,2.1c-0.7,0.5-1.5,0.7-2.4,0.7
			c-0.6,0-1.1-0.1-1.6-0.3c-0.4,0.2-0.6,0.5-0.6,0.8c0,0.6,0.7,0.9,2,0.9h1.3c1.1,0,1.9,0.2,2.5,0.6c0.6,0.4,0.9,1,0.9,1.7
			c0,0.8-0.4,1.5-1.2,1.9C49.2,96.6,48.2,96.8,46.9,96.8z M46.9,95.9c1.8,0,2.8-0.5,2.8-1.5c0-0.9-0.8-1.3-2.4-1.3h-0.8
			c-0.7,0-1.3,0.1-1.7,0.4s-0.6,0.6-0.6,1c0,0.4,0.2,0.8,0.7,1S46,95.9,46.9,95.9z M46.8,89.4c0.6,0,1-0.2,1.4-0.5
			c0.4-0.3,0.5-0.8,0.5-1.4c0-0.6-0.2-1-0.5-1.3s-0.8-0.5-1.4-0.5c-0.6,0-1,0.2-1.4,0.5c-0.4,0.3-0.5,0.8-0.5,1.3
			c0,0.6,0.2,1.1,0.5,1.4C45.8,89.3,46.2,89.4,46.8,89.4z"/>
		<path class="st1" d="M56.5,93.7c-1.2,0-2.1-0.4-2.8-1.1s-1.1-1.9-1.1-3.3c0-1.5,0.4-2.6,1.1-3.3c0.7-0.8,1.6-1.1,2.8-1.1
			c1.2,0,2.1,0.4,2.7,1.1s0.9,1.7,0.9,2.9c0,0.3,0,0.5-0.1,0.8h-5.9c0.1,2,0.9,3,2.4,3c0.5,0,0.9-0.2,1.3-0.5s0.6-0.7,0.7-1.3
			l1.3,0.3c-0.1,0.8-0.4,1.4-1,1.9S57.4,93.7,56.5,93.7z M56.4,85.9c-0.6,0-1.1,0.2-1.5,0.6c-0.4,0.4-0.7,1.1-0.8,1.9h4.5
			c0-0.8-0.2-1.4-0.6-1.9S57,85.9,56.4,85.9z"/>
		<path class="st1" d="M69.4,93.5h-1.5v-5.4c0-1.4-0.6-2.1-1.8-2.1c-1,0-1.7,0.5-2.1,1.5v6.1h-1.5v-8.6h1l0.3,2.1
			c0.3-1.5,1.3-2.2,2.8-2.2c0.8,0,1.4,0.3,2,0.8s0.8,1.3,0.8,2.4V93.5z"/>
		<path class="st1" d="M82.7,93.5h-1.5v-8.6h1l0.3,2.4c0.1-0.9,0.4-1.5,0.8-1.9s0.9-0.6,1.5-0.6c0.3,0,0.5,0,0.9,0.1l-0.1,1.3
			c-0.2,0-0.4-0.1-0.7-0.1c-0.3,0-0.5,0-0.7,0.1c-0.2,0.1-0.5,0.2-0.8,0.5c-0.3,0.2-0.5,0.6-0.6,1C82.7,87.7,82.7,93.5,82.7,93.5z"
			/>
		<path class="st1" d="M93.9,93.7c-0.5,0-0.9-0.2-1.2-0.5c-0.3-0.3-0.4-0.8-0.3-1.4l0-0.5c-0.2,0.8-0.6,1.3-1.2,1.7
			c-0.6,0.4-1.2,0.6-1.9,0.6c-0.7,0-1.3-0.2-1.7-0.6c-0.4-0.4-0.7-0.9-0.7-1.5c0-0.9,0.4-1.6,1.2-2.1c0.8-0.5,1.9-0.8,3.2-0.9l1-0.1
			c0-0.1,0-0.2,0-0.4c0-0.2,0-0.3,0-0.4c0-1.2-0.6-1.8-1.8-1.8c-0.6,0-1,0.1-1.3,0.4c-0.3,0.3-0.5,0.7-0.5,1.3c0,0.1,0,0.2,0,0.4
			l-1.3,0.1c0-0.2-0.1-0.3-0.1-0.6c0-0.8,0.3-1.4,0.9-2c0.6-0.5,1.4-0.8,2.3-0.8c1,0,1.8,0.3,2.4,0.8c0.6,0.5,0.9,1.3,0.9,2.3
			c0,0.4,0,1,0,2c0,1,0,1.6,0,2c0,0.6,0.2,0.9,0.6,0.9c0.2,0,0.3,0,0.5-0.1l0.2,0.9C94.7,93.6,94.3,93.7,93.9,93.7z M92.3,89.4
			l-0.8,0.1c-2,0.2-3,0.8-3,1.9c0,0.4,0.1,0.6,0.3,0.9c0.2,0.2,0.5,0.3,0.9,0.3c0.5,0,1-0.1,1.4-0.4c0.4-0.3,0.8-0.6,1.2-1.1
			L92.3,89.4z"/>
		<path class="st1" d="M99.4,93.7c-1.3,0-2-0.8-2-2.3V86H96v-1.1h0.8c0.5,0,0.7-0.2,0.7-0.7v-0.6l1.3-2.1v3.4h1.8V86h-1.8v5.1
			c0,0.5,0.1,0.9,0.2,1.1c0.1,0.2,0.4,0.3,0.7,0.3c0.3,0,0.6-0.1,0.9-0.2l0.3,1C100.5,93.5,100,93.7,99.4,93.7z"/>
		<path class="st1" d="M104.6,83H103v-1.6h1.6V83z M104.5,93.5h-1.5v-8.6h1.5V93.5z"/>
		<path class="st1" d="M111.3,93.5h-1.8l-2.9-8.6h1.5l2.4,7.4l2.3-7.4h1.5L111.3,93.5z"/>
		<path class="st1" d="M119.5,93.7c-1.2,0-2.1-0.4-2.8-1.1c-0.7-0.7-1.1-1.9-1.1-3.3c0-1.5,0.4-2.6,1.1-3.3c0.7-0.8,1.6-1.1,2.8-1.1
			c1.2,0,2.1,0.4,2.7,1.1c0.6,0.8,0.9,1.7,0.9,2.9c0,0.3,0,0.5-0.1,0.8h-5.9c0.1,2,0.9,3,2.4,3c0.5,0,0.9-0.2,1.3-0.5
			c0.4-0.3,0.6-0.7,0.7-1.3l1.4,0.3c-0.1,0.8-0.4,1.4-1,1.9C121.2,93.4,120.5,93.7,119.5,93.7z M119.5,85.9c-0.6,0-1.1,0.2-1.5,0.6
			c-0.4,0.4-0.7,1.1-0.8,1.9h4.5c0-0.8-0.2-1.4-0.6-1.9C120.6,86.1,120.1,85.9,119.5,85.9z"/>
		<path class="st1" d="M75.5,93.7c-1.2,0-2.1-0.4-2.8-1.1s-1.1-1.9-1.1-3.3c0-1.5,0.4-2.6,1.1-3.3c0.7-0.8,1.6-1.1,2.8-1.1
			c1.2,0,2.1,0.4,2.7,1.1c0.6,0.8,0.9,1.7,0.9,2.9c0,0.3,0,0.5-0.1,0.8h-5.9c0.1,2,0.9,3,2.4,3c0.5,0,0.9-0.2,1.3-0.5
			s0.6-0.7,0.7-1.3l1.3,0.3c-0.1,0.8-0.4,1.4-1,1.9C77.1,93.4,76.4,93.7,75.5,93.7z M75.4,85.9c-0.6,0-1.1,0.2-1.5,0.6
			c-0.4,0.4-0.7,1.1-0.8,1.9h4.5c0-0.8-0.2-1.4-0.6-1.9S76,85.9,75.4,85.9z"/>
	</g>
</g>
<g>
	<path class="st1" d="M67.5,51.7c-0.2,0.9-0.4,1.8-0.7,2.8c-0.5,2-1,4.1-1.5,6.1c-0.1,0.4-0.2,0.5-0.6,0.5c-5.9,0-11.8,0-17.7,0
		c-0.9,0-1.8-0.2-2.6-0.8c-1-0.7-1.6-1.6-1.6-2.9c0-7.1,0-14.1,0-21.2c0-2.1,1.2-3.5,3.2-3.9c0.3-0.1,0.7-0.1,1-0.1
		c7.1,0,14.2,0,21.3,0c0.1,0,0.3,0,0.5,0c-0.2,0.3-0.3,0.5-0.4,0.6c-3.4,5-6.8,10-10.1,15c-0.5,0.7-0.7,1.5-0.3,2.3
		c0.4,0.8,1.1,1.2,2.1,1.2c2.3,0.1,4.5,0.1,6.8,0.2C67.1,51.7,67.3,51.7,67.5,51.7"/>
	<path class="st1" d="M76,26.4c-0.2,0.9-0.4,1.7-0.6,2.5c-1.1,4.6-2.2,9.1-3.2,13.7c-0.2,0.7,0,1,0.8,1c2.7,0.1,5.5,0.1,8.2,0.2
		c0.3,0,0.7,0.1,0.8,0.3c0.1,0.2,0,0.6-0.2,0.8c-3.3,4.9-6.6,9.7-10,14.5c-1.6,2.4-3.3,4.8-4.9,7.2c-0.1,0.1-0.1,0.3-0.2,0.3
		c-0.2,0.1-0.4,0.2-0.6,0.3c-0.1-0.2-0.3-0.5-0.2-0.6c0.2-0.9,0.4-1.9,0.6-2.8c1-4.2,2-8.4,3-12.7c0.2-0.8,0-1-0.8-1.1
		C66,50,63.4,50,60.7,49.9c-0.3,0-0.8-0.1-0.9-0.3c-0.3-0.4,0.1-0.7,0.3-1c4.9-7.3,9.9-14.6,14.8-22c0.1-0.1,0.2-0.3,0.3-0.4
		c0.2-0.1,0.4-0.2,0.5-0.2C75.8,26.1,75.9,26.3,76,26.4"/>
	<path class="st1" d="M96.6,41.7c0-1.9,0-3.7,0-5.6c0-1.1-0.5-1.7-1.6-1.9c-0.3,0-0.6,0-0.8,0c-5.7,0-11.5,0-17.2,0
		c-0.2,0-0.4,0-0.7,0v-2c0.2,0,0.3,0,0.5,0c6,0,11.9,0,17.8,0c1.3,0,2.4,0.4,3.3,1.3c0.6,0.6,0.9,1.3,0.9,2.2c0,1.1,0,2.2,0,3.3
		c0,0.7,0,0.7,0.7,0.7c0.6,0,1.1,0,1.7,0c1.5,0,2.5,1,2.5,2.6c0,2.9-0.1,5.7,0,8.6c0,1.8-1.4,2.7-2.7,2.7c-0.7,0-1.4,0-2.2,0
		c0,0.2,0,0.4,0,0.6c0,1.1,0,2.2,0,3.2c0,1.2-0.5,2.2-1.5,2.9c-0.8,0.5-1.7,0.8-2.6,0.8c-6.9,0-13.8,0-20.6,0c-0.1,0-0.3,0-0.5,0v-2
		c0.2,0,0.4,0,0.6,0c6.8,0,13.5,0,20.2,0c0.4,0,0.8-0.1,1.2-0.2c0.7-0.3,1-0.8,1-1.5c0-1.7,0-3.4,0-5.1c0-0.2,0-0.4,0-0.6
		c0.7,0,1.4,0,2.1,0c0.7,0,1.5,0,2.2,0c0.4,0,0.6-0.2,0.6-0.6c0-2.9,0-5.8,0-8.6c0-0.5-0.2-0.6-0.6-0.6c-1.2,0-2.4,0-3.7,0
		C97,41.7,96.8,41.7,96.6,41.7"/>
</g>
</svg>
