<?xml version="1.0" encoding="utf-8"?>
<!-- Generator: Adobe Illustrator 27.8.0, SVG Export Plug-In . SVG Version: 6.00 Build 0)  -->
<!DOCTYPE svg PUBLIC "-//W3C//DTD SVG 1.1//EN" "http://www.w3.org/Graphics/SVG/1.1/DTD/svg11.dtd" [
	<!ENTITY ns_extend "http://ns.adobe.com/Extensibility/1.0/">
	<!ENTITY ns_ai "http://ns.adobe.com/AdobeIllustrator/10.0/">
	<!ENTITY ns_graphs "http://ns.adobe.com/Graphs/1.0/">
	<!ENTITY ns_vars "http://ns.adobe.com/Variables/1.0/">
	<!ENTITY ns_imrep "http://ns.adobe.com/ImageReplacement/1.0/">
	<!ENTITY ns_sfw "http://ns.adobe.com/SaveForWeb/1.0/">
	<!ENTITY ns_custom "http://ns.adobe.com/GenericCustomNamespace/1.0/">
	<!ENTITY ns_adobe_xpath "http://ns.adobe.com/XPath/1.0/">
]>
  <svg version="1.1" id="Layer_1" xmlns="http://www.w3.org/2000/svg" xmlnsxlink="http://www.w3.org/1999/xlink" x="0px" y="0px"
	 width="145px" height="145px" viewBox="0 0 145 145" enable-background="new 0 0 145 145" xml:space="preserve">
<circle fill="none" stroke="#FFFFFF" stroke-width="7" stroke-miterlimit="10" cx="72.5" cy="72.5" r="67.25"/>
<style type="text/css">
	.st1{fill:#FFFFFF;}
</style>
<rect x="-319.5" y="-225.5" fill="none" width="97.605" height="108.157"/>
<path class="st1" d="M30.1,81.6c-0.5,0-1-0.2-1.3-0.5c-0.3-0.3-0.5-0.8-0.5-1.5v-3.8h1v3.6c0,0.5,0.1,0.9,0.3,1.1
	c0.2,0.2,0.5,0.3,0.8,0.3c0.3,0,0.5-0.1,0.8-0.2s0.4-0.4,0.6-0.7v-4.1h1v5.7h-0.6l-0.2-1.4c-0.1,0.5-0.3,0.9-0.6,1.1
	C30.9,81.5,30.5,81.6,30.1,81.6z"/>
<path class="st1" d="M35.7,80.3v3.3h-1v-7.8h0.6l0.2,1.4c0.2-1,0.9-1.5,1.9-1.5c0.7,0,1.2,0.3,1.6,0.8c0.4,0.5,0.6,1.3,0.6,2.1
	c0,1-0.2,1.7-0.6,2.2c-0.4,0.5-0.9,0.8-1.5,0.8C36.6,81.6,36,81.2,35.7,80.3z M37.2,76.5c-0.7,0-1.2,0.3-1.4,1v2.4
	c0.1,0.3,0.3,0.6,0.6,0.8s0.5,0.3,0.8,0.3c0.5,0,0.8-0.2,1.1-0.6c0.3-0.4,0.4-0.9,0.4-1.7c0-0.7-0.1-1.2-0.4-1.6
	C38,76.6,37.6,76.5,37.2,76.5z"/>
<path class="st1" d="M43.1,81.6c-0.9,0-1.3-0.5-1.3-1.5v-3.6h-0.9v-0.7h0.5c0.3,0,0.5-0.2,0.5-0.5v-0.4l0.9-1.4v2.3h1.2v0.7h-1.2
	v3.4c0,0.3,0,0.6,0.1,0.7c0.1,0.1,0.2,0.2,0.5,0.2c0.2,0,0.4,0,0.6-0.1l0.2,0.6C43.8,81.5,43.5,81.6,43.1,81.6z"/>
<path class="st1" d="M49.5,80.9c-0.5,0.5-1.1,0.8-1.9,0.8s-1.4-0.2-1.9-0.8S45,79.6,45,78.6s0.2-1.7,0.7-2.2s1.1-0.8,1.9-0.8
	s1.4,0.2,1.9,0.8s0.7,1.2,0.7,2.2C50.2,79.6,49.9,80.4,49.5,80.9z M47.6,80.8c0.5,0,0.8-0.2,1.1-0.5s0.4-0.9,0.4-1.6
	c0-0.7-0.1-1.3-0.4-1.6c-0.3-0.4-0.7-0.5-1.1-0.5c-0.5,0-0.8,0.2-1.1,0.5c-0.3,0.4-0.4,0.9-0.4,1.6c0,0.7,0.1,1.3,0.4,1.6
	C46.8,80.6,47.1,80.8,47.6,80.8z"/>
<path class="st1" d="M70.7,109.1c-2.4,0-4.3-0.9-5.7-2.7c-1.4-1.8-2.1-4.6-2.1-8.3c0-3.8,0.7-6.5,2.1-8.4c1.4-1.8,3.3-2.7,5.7-2.7
	c2.3,0,4.2,0.9,5.6,2.7c1.4,1.8,2.1,4.6,2.1,8.4c0,3.7-0.7,6.5-2.1,8.3C74.9,108.2,73,109.1,70.7,109.1z M70.7,106.7
	c3.2,0,4.8-2.9,4.8-8.7c0-5.8-1.6-8.7-4.8-8.7c-3.2,0-4.8,2.9-4.8,8.7C65.8,103.8,67.5,106.7,70.7,106.7z"/>
<path class="st1" d="M52.8,109.1c-2.4,0-4.3-0.9-5.7-2.7c-1.4-1.8-2.1-4.6-2.1-8.3c0-3.8,0.7-6.5,2.1-8.4c1.4-1.8,3.3-2.7,5.7-2.7
	c2.3,0,4.2,0.9,5.6,2.7c1.4,1.8,2.1,4.6,2.1,8.4c0,3.7-0.7,6.5-2.1,8.3C57,108.2,55.1,109.1,52.8,109.1z M52.8,106.7
	c3.2,0,4.8-2.9,4.8-8.7c0-5.8-1.6-8.7-4.8-8.7s-4.8,2.9-4.8,8.7C47.9,103.8,49.5,106.7,52.8,106.7z"/>
<path class="st1" d="M84.1,108.7h-1.6V95.3h0.6c0.4,0,0.8,0,1-0.1v8.5l4.2-4.5h1.9l-3.7,4l3.8,5.5h-2l-3-4.5l-1.2,1.3L84.1,108.7
	L84.1,108.7z"/>
<path class="st1" d="M105.4,108.7h-1.6v-6c0-1.6-0.6-2.4-1.7-2.4c-1,0-1.8,0.6-2.2,1.7v6.8h-1.6v-6.1c0-1.5-0.6-2.3-1.8-2.3
	c-0.5,0-0.9,0.1-1.3,0.4s-0.7,0.7-0.9,1.2v6.8h-1.6v-9.5h1.1l0.3,2.3c0.4-1.7,1.3-2.5,2.7-2.5c0.7,0,1.4,0.2,1.9,0.6
	c0.5,0.4,0.9,1,0.9,1.9c0.2-0.8,0.5-1.4,1.1-1.9s1.2-0.6,1.9-0.6c0.9,0,1.6,0.3,2.1,0.9c0.5,0.6,0.8,1.4,0.8,2.4L105.4,108.7
	L105.4,108.7z"/>
<path class="st1" d="M111.9,108.9c-1.2,0-2.1-0.3-2.8-0.8c-0.7-0.5-1.1-1.3-1.2-2.2l1.5-0.3c0.1,0.7,0.4,1.2,0.8,1.5
	c0.5,0.3,1,0.5,1.7,0.5c0.6,0,1.1-0.1,1.5-0.4s0.5-0.6,0.5-1.1c0-0.4-0.1-0.7-0.4-0.9c-0.3-0.2-0.7-0.4-1.4-0.6l-1.1-0.3
	c-1.9-0.5-2.8-1.4-2.8-2.7c0-0.8,0.3-1.5,0.9-2c0.6-0.5,1.5-0.8,2.5-0.8c1.1,0,1.9,0.3,2.6,0.8c0.6,0.5,1,1.2,1,1.9l-1.5,0.3
	c0-0.5-0.2-0.8-0.6-1.2c-0.4-0.3-0.9-0.5-1.5-0.5c-0.6,0-1,0.1-1.3,0.4c-0.3,0.2-0.5,0.6-0.5,0.9c0,0.7,0.6,1.1,1.7,1.4l1.2,0.3
	c0.9,0.2,1.6,0.6,2.1,1s0.7,1,0.7,1.8c0,0.8-0.3,1.5-1,2C113.8,108.6,113,108.9,111.9,108.9z"/>
<g>
	<path class="st1" d="M53.4,32.7c1.7,1.7,3.3,3.4,4.8,5c0.4,0.4,0.7,0.9,0.9,1.4c0.2,0.9-0.2,1.7-1,2.1c-0.8,0.4-1.7,0.3-2.4-0.4
		c-1.5-1.4-2.9-2.8-4.3-4.3c-0.3-0.3-0.5-0.7-0.7-1.1c-4.8,5.6-7.4,11.7-7.9,18.8c0.4,0,0.7,0,1.1,0c3.3,0,6.6,0,9.9,0
		c1.4,0,2.3,0.8,2.3,2c0,1.2-0.9,2-2.3,2c-4.2,0-8.5,0-12.7,0c-1.5,0-2.3-0.7-2.2-2.2C39,42.7,45,32.6,56.4,25.8
		c6.1-3.7,12.9-5.2,20-4.6C89.7,22.3,99.5,29,105.6,41c2.4,4.7,3.5,9.7,3.5,14.9c0,1.7-0.7,2.4-2.3,2.4c-4.3,0-8.5,0-12.8,0
		c-1,0-1.7-0.5-2-1.4c-0.3-0.8,0-1.7,0.7-2.2c0.4-0.3,0.9-0.4,1.4-0.4c3.3,0,6.6,0,10,0c0.3,0,0.6,0,1,0c-0.5-7.1-3.1-13.2-7.7-18.6
		c-1.3,1.3-2.5,2.5-3.7,3.7c-0.4,0.4-0.8,0.9-1.3,1.3c-1,0.9-2.2,1-3,0.1c-0.8-0.8-0.8-2,0.2-3c1.4-1.5,2.9-2.9,4.3-4.4
		c0.2-0.2,0.4-0.4,0.6-0.6c-5.4-4.6-11.5-7.2-18.6-7.7c0,0.4,0,0.7,0,1c0,2.3,0,4.6,0,7c0,1.3-0.8,2.1-2,2c-1.1,0-1.9-0.8-1.9-2.1
		c0-2.3,0-4.5,0-6.8c0-0.3,0-0.6,0-1.1C64.8,25.6,58.7,28.2,53.4,32.7"/>
	<path class="st1" d="M80.2,56.1c0,3.3-2.3,6-5.3,6.5c-3.3,0.4-6.4-1.5-7.1-4.7c-0.5-2.3-0.9-4.7-1.2-7.1c-0.4-3.2-0.7-6.4-1.1-9.6
		c-0.1-1,0.3-1.8,1.1-2.2c0.8-0.4,1.8-0.2,2.5,0.6c3.2,4.1,6.4,8.2,9.6,12.4C79.6,53.3,80.3,54.7,80.2,56.1 M70.5,47.7l-0.2,0.1
		c0,0.1,0,0.3,0,0.4c0.4,2.9,0.8,5.7,1.3,8.6c0.2,1.1,0.9,1.7,1.9,1.9c1,0.2,1.8-0.2,2.3-1c0.6-0.9,0.6-1.8,0-2.7
		C74.1,52.5,72.3,50.1,70.5,47.7"/>
</g>
<g>
	<path class="st1" d="M35.4,108.9c-2.2,0-3.9-0.6-5.2-1.8c-1.2-1.2-1.9-2.8-1.9-4.7l2.7-0.2c0,1.3,0.4,2.3,1.2,3.1
		c0.8,0.8,1.9,1.2,3.3,1.2c1.3,0,2.3-0.3,3.1-1c0.8-0.7,1.2-1.6,1.2-2.6c0-2.5-1.8-3.8-5.5-3.8h-0.8v-2.4h0.7c1.4,0,2.5-0.3,3.4-1
		c0.9-0.6,1.4-1.6,1.4-2.9c0-1-0.3-1.8-1-2.4c-0.7-0.6-1.6-0.9-2.6-0.9c-1.2,0-2.2,0.4-3,1.3c-0.8,0.8-1.1,1.9-1.1,3.1l-2.7-0.2
		c0-1.9,0.7-3.5,1.9-4.7s2.9-1.8,4.8-1.8c2,0,3.5,0.5,4.7,1.5c1.2,1,1.8,2.3,1.8,4c0,1.2-0.4,2.2-1.1,3.1c-0.7,0.9-1.8,1.5-3.2,1.9
		c1.5,0.2,2.7,0.7,3.6,1.6c0.9,0.9,1.3,2,1.3,3.4c0,1.7-0.6,3.1-1.9,4.3C39.5,108.3,37.7,108.9,35.4,108.9z"/>
</g>
</svg>
