<?xml version="1.0" encoding="utf-8"?>
<!-- Generator: Adobe Illustrator 27.8.0, SVG Export Plug-In . SVG Version: 6.00 Build 0)  -->
<!DOCTYPE svg PUBLIC "-//W3C//DTD SVG 1.1//EN" "http://www.w3.org/Graphics/SVG/1.1/DTD/svg11.dtd" [
	<!ENTITY ns_extend "http://ns.adobe.com/Extensibility/1.0/">
	<!ENTITY ns_ai "http://ns.adobe.com/AdobeIllustrator/10.0/">
	<!ENTITY ns_graphs "http://ns.adobe.com/Graphs/1.0/">
	<!ENTITY ns_vars "http://ns.adobe.com/Variables/1.0/">
	<!ENTITY ns_imrep "http://ns.adobe.com/ImageReplacement/1.0/">
	<!ENTITY ns_sfw "http://ns.adobe.com/SaveForWeb/1.0/">
	<!ENTITY ns_custom "http://ns.adobe.com/GenericCustomNamespace/1.0/">
	<!ENTITY ns_adobe_xpath "http://ns.adobe.com/XPath/1.0/">
]>
<svg version="1.1" id="Layer_1" xmlns:x="&ns_extend;" xmlns:i="&ns_ai;" xmlns:graph="&ns_graphs;"
	 xmlns="http://www.w3.org/2000/svg" xmlns:xlink="http://www.w3.org/1999/xlink" x="0px" y="0px" viewBox="0 0 1183.2 240"
	 style="enable-background:new 0 0 1183.2 240;" xml:space="preserve">
<style type="text/css">
	.st0{fill:#00BE84;}
	.st1{fill:#505BF9;}
	.st2{fill:#505BFE;}
	.st3{fill:#FFFFFF;}
</style>
<metadata>
	<sfw  xmlns="&ns_sfw;">
		<slices></slices>
		<sliceSourceBounds  bottomLeftOrigin="true" height="224.1" width="1150.5" x="-40.7" y="-2034"></sliceSourceBounds>
	</sfw>
</metadata>
<path class="st0" d="M713.8,8.5h441.3c8.7,0,14.2,9.3,9.9,16.9l-110,196.7c-2,3.6-5.8,5.8-9.9,5.8H606.1c-8.6,0-14.1-9.3-10-16.8
	L703.8,14.4C705.8,10.8,709.6,8.5,713.8,8.5z"/>
<path class="st1" d="M121,188.4c3.4,0.6,5,2.6,5,6v28.9c0,3.1-1.6,4.7-4.7,4.7H20.7c-3.1,0-4.7-1.6-4.7-4.7v-28.9c0-3.3,1.7-5.3,5-6
	c8.8-1.5,15.6-2.3,20.4-2.5V50.4C33,49.8,26.2,48.8,21,47.6c-3.4-0.6-5-2.6-5-5.9V12.9c0-3.1,1.6-4.7,4.7-4.7h100.6
	c3.1,0,4.7,1.6,4.7,4.7v28.7c0,3.3-1.7,5.3-5,5.9c-5.7,1.2-12.5,2.2-20.4,2.8v135.5C104.7,186.1,111.5,187,121,188.4z"/>
<g>
	<path class="st2" d="M347.3,232H205.2c-32.3,0-54-21.7-54-54v-63.5c0-32.3,21.7-54,54-54h113.2c32.3,0,50.8,18.5,50.8,50.8v4.4
		c0,32.3-18.5,50.8-50.8,50.8H211.7c0.2,7.2,4.3,11.2,11.7,11.2h123.9c10.1,0,15.6,5.6,15.6,15.6v23C363,226.5,357.4,232,347.3,232z
		 M205.2,68.6c-27.9,0-46,18.1-46,46v63.5c0,27.9,18.1,46,46,46h142.1c5.6,0,7.6-2,7.6-7.6v-23c0-5.6-2-7.6-7.6-7.6H223.5
		c-12,0-19.7-7.7-19.7-19.7v-7.5h114.7c28,0,42.8-14.8,42.8-42.8v-4.4c0-28-14.8-42.8-42.8-42.8H205.2z M304.6,133.9H203.7v-7.5
		c0-12,7.7-19.7,19.7-19.7h81.1c7.6,0,12.2,4.6,12.2,12.2v2.8C316.7,129.2,312,133.9,304.6,133.9z M211.7,125.9h92.8
		c2.5,0,4.2-0.7,4.2-4.2v-2.8c0-3.2-1-4.2-4.2-4.2h-81.1C216.1,114.8,211.9,118.7,211.7,125.9z"/>
</g>
<path class="st1" d="M486.3,214.5L381.9,22.7C378.5,16.5,381,8,389.5,8h37.7c10.1,0,14.5,3.1,17.9,9.4l82.4,159.7l82.7-159.7
	c3.5-6.3,7.9-9.4,17.9-9.4h36.2c8.5,0,11,8.5,7.5,14.8L567.4,214.5c-5,9.1-14.1,13.5-25.8,13.5h-29.6
	C500.4,228,491.3,223.6,486.3,214.5z"/>
<g>
	<path class="st3" d="M690.3,107.8v0.7c0,2.8,1.6,4.1,4.8,4.1h34.5c11,0,17.9,3.9,17.9,14.7v5.7c0,10.9-6.9,14.7-17.9,14.7h-50.1
		c-2.3,0-3.5-1.2-3.5-3.5v-6.6c0-2.3,1.2-3.5,3.5-3.5h48c3.1,0,4.8-1.2,4.8-4.1v-0.7c0-2.9-1.6-4.1-4.8-4.1h-34.5
		c-11,0-17.9-3.9-17.9-14.7v-5.7c0-10.9,6.9-14.7,17.9-14.7h49.4c2.3,0,3.5,1.2,3.5,3.5v6.6c0,2.3-1.2,3.5-3.5,3.5h-47.3
		C691.9,103.7,690.3,105,690.3,107.8z"/>
	<path class="st3" d="M769.8,128.2c0,4,2.1,6.1,6.1,6.1h46.3c2.3,0,3.5,1.2,3.5,3.5v6.6c0,2.3-1.2,3.5-3.5,3.5h-50.6
		c-11,0-17.1-6.3-17.1-17.2v-23.2c0-10.9,6.1-17.2,17.1-17.2h50.6c2.3,0,3.5,1.2,3.5,3.5v6.6c0,2.3-1.2,3.5-3.5,3.5h-46.3
		c-4,0-6.1,2.1-6.1,6.1v2.9h45.8c2.3,0,3.5,1.2,3.5,3.5v5.8c0,2.3-1.2,3.5-3.5,3.5h-45.8V128.2z"/>
	<path class="st3" d="M845.3,147.8h-8.4c-2.3,0-3.5-1.2-3.5-3.5V93.6c0-2.3,1.2-3.5,3.5-3.5h49.8c11,0,17.5,3.9,17.5,14.7v4
		c0,7.5-3,11.6-8.6,13.5c5.5,1.9,8.6,6.1,8.6,13.5v8.5c0,2.3-1.2,3.5-3.5,3.5h-8.4c-2.3,0-3.5-1.2-3.5-3.5v-8.7
		c0-4.4-2.6-6.5-7.2-6.5h-33v15.2C848.8,146.6,847.6,147.8,845.3,147.8z M889,107.8c0-2.9-1.6-4.1-4.8-4.1h-35.4v11.9h35.4
		c3.1,0,4.8-1.2,4.8-4.1V107.8z"/>
	<path class="st3" d="M927.7,144.3c0,2.3-1.2,3.5-3.5,3.5h-8.4c-2.3,0-3.5-1.2-3.5-3.5V93.6c0-2.3,1.2-3.5,3.5-3.5h8.4
		c2.3,0,3.5,1.2,3.5,3.5V144.3z"/>
	<path class="st3" d="M951.7,128.2c0,4,2.1,6.1,6.1,6.1h46.3c2.3,0,3.5,1.2,3.5,3.5v6.6c0,2.3-1.2,3.5-3.5,3.5h-50.6
		c-11,0-17.1-6.3-17.1-17.2v-23.2c0-10.9,6.1-17.2,17.1-17.2h50.6c2.3,0,3.5,1.2,3.5,3.5v6.6c0,2.3-1.2,3.5-3.5,3.5h-46.3
		c-4,0-6.1,2.1-6.1,6.1v2.9h45.8c2.3,0,3.5,1.2,3.5,3.5v5.8c0,2.3-1.2,3.5-3.5,3.5h-45.8V128.2z"/>
	<path class="st3" d="M1029,107.8v0.7c0,2.8,1.6,4.1,4.8,4.1h34.5c11,0,17.9,3.9,17.9,14.7v5.7c0,10.9-6.9,14.7-17.9,14.7h-50.1
		c-2.3,0-3.5-1.2-3.5-3.5v-6.6c0-2.3,1.2-3.5,3.5-3.5h48c3.1,0,4.8-1.2,4.8-4.1v-0.7c0-2.9-1.6-4.1-4.8-4.1h-34.5
		c-11,0-17.9-3.9-17.9-14.7v-5.7c0-10.9,6.9-14.7,17.9-14.7h49.4c2.3,0,3.5,1.2,3.5,3.5v6.6c0,2.3-1.2,3.5-3.5,3.5h-47.3
		C1030.6,103.7,1029,105,1029,107.8z"/>
</g>
</svg>
