<?xml version="1.0" encoding="utf-8"?>
<!-- Generator: Adobe Illustrator 27.8.0, SVG Export Plug-In . SVG Version: 6.00 Build 0)  -->
<!DOCTYPE svg PUBLIC "-//W3C//DTD SVG 1.1//EN" "http://www.w3.org/Graphics/SVG/1.1/DTD/svg11.dtd" [
	<!ENTITY ns_extend "http://ns.adobe.com/Extensibility/1.0/">
	<!ENTITY ns_ai "http://ns.adobe.com/AdobeIllustrator/10.0/">
	<!ENTITY ns_graphs "http://ns.adobe.com/Graphs/1.0/">
	<!ENTITY ns_vars "http://ns.adobe.com/Variables/1.0/">
	<!ENTITY ns_imrep "http://ns.adobe.com/ImageReplacement/1.0/">
	<!ENTITY ns_sfw "http://ns.adobe.com/SaveForWeb/1.0/">
	<!ENTITY ns_custom "http://ns.adobe.com/GenericCustomNamespace/1.0/">
	<!ENTITY ns_adobe_xpath "http://ns.adobe.com/XPath/1.0/">
]>
<svg version="1.1" id="Layer_1" xmlns:x="&ns_extend;" xmlns:i="&ns_ai;" xmlns:graph="&ns_graphs;"
	 xmlns="http://www.w3.org/2000/svg" xmlns:xlink="http://www.w3.org/1999/xlink" x="0px" y="0px" viewBox="0 0 1072.6 240"
	 style="enable-background:new 0 0 1072.6 240;" xml:space="preserve">
<style type="text/css">
	.st0{fill:#00BE84;}
	.st1{fill:#505BF9;}
	.st2{fill:none;stroke:#505BFE;stroke-width:8;stroke-miterlimit:10;}
	.st3{fill:#FFFFFF;}
</style>
<metadata>
	<sfw  xmlns="&ns_sfw;">
		<slices></slices>
		<sliceSourceBounds  bottomLeftOrigin="true" height="224.1" width="1048.1" x="-44.4" y="-2036"></sliceSourceBounds>
	</sfw>
</metadata>
<path class="st0" d="M710.1,10.5H1049c8.7,0,14.2,9.3,9.9,16.9l-110,196.7c-2,3.6-5.8,5.8-9.9,5.8H602.4c-8.6,0-14.1-9.3-10-16.8
	L700.1,16.4C702.1,12.8,705.9,10.5,710.1,10.5z"/>
<path class="st1" d="M117.3,190.4c3.4,0.6,5,2.6,5,6v28.9c0,3.1-1.6,4.7-4.7,4.7H17c-3.1,0-4.7-1.6-4.7-4.7v-28.9c0-3.3,1.7-5.3,5-6
	c8.8-1.5,15.6-2.3,20.4-2.5V52.4c-8.4-0.6-15.2-1.6-20.4-2.8c-3.4-0.6-5-2.6-5-5.9V14.9c0-3.1,1.6-4.7,4.7-4.7h100.6
	c3.1,0,4.7,1.6,4.7,4.7v28.7c0,3.3-1.7,5.3-5,5.9c-5.7,1.2-12.5,2.2-20.4,2.8v135.5C101,188.1,107.8,189,117.3,190.4z"/>
<path class="st2" d="M314.7,66.6c30.2,0,46.8,16.7,46.8,46.8v4.4c0,30.2-16.7,46.8-46.8,46.8H204v3.5c0,9.7,6,15.7,15.7,15.7h123.9
	c7.9,0,11.6,3.8,11.6,11.6v23c0,7.9-3.8,11.6-11.6,11.6H201.5c-29.9,0-50-19.8-50-50v-63.5c0-30.2,20.1-50,50-50H314.7z M204,131.9
	h96.8c6,0,8.2-3.8,8.2-8.2v-2.8c0-4.7-2.2-8.2-8.2-8.2h-81.1c-9.7,0-15.7,6-15.7,15.7V131.9z"/>
<path class="st1" d="M482.6,216.5L378.2,24.7c-3.5-6.3-0.9-14.8,7.5-14.8h37.7c10.1,0,14.5,3.1,17.9,9.4l82.4,159.7l82.7-159.7
	c3.5-6.3,7.9-9.4,17.9-9.4h36.2c8.5,0,11,8.5,7.5,14.8L563.7,216.5c-5,9.1-14.1,13.5-25.8,13.5h-29.6
	C496.7,230,487.6,225.6,482.6,216.5z"/>
<g>
	<g>
		<path class="st3" d="M931.4,26.2h-26.3c-6,0-11.1,4.4-12,10.3l-4.9,31.4h0L876.8,140l-1.9,12.4c0,0.1,0,0.2,0,0.3l-8.1,51.2
			c-1.1,7,1.9,10.5,8.9,10.5h26.4c7,0,11-3.5,12.1-10.5l26.3-167.2C941.4,29.7,938.4,26.2,931.4,26.2z"/>
	</g>
	<path class="st3" d="M937.1,138c4,0,7,3.5,6.4,7.4c-0.6,3.6-1.1,7.1-1.1,7.2l-3.2,20.4c-0.5,3.1-3.2,5.4-6.4,5.4H718.2
		c-5.7,0-10.4-4.6-10.4-10.4v-18.6c0-2.5,1.1-4.9,2.9-6.6l5.5-4.9L833.4,31.8c1.2-1.1,2.8-1.7,4.5-1.7h37c6.1,0,9,7.5,4.5,11.6
		l-97.7,88.6c-3,2.7-1.1,7.8,3,7.8H937.1z"/>
</g>
</svg>
