<?xml version="1.0" encoding="utf-8"?>
<!-- Generator: Adobe Illustrator 27.8.0, SVG Export Plug-In . SVG Version: 6.00 Build 0)  -->
<!DOCTYPE svg PUBLIC "-//W3C//DTD SVG 1.1//EN" "http://www.w3.org/Graphics/SVG/1.1/DTD/svg11.dtd" [
	<!ENTITY ns_extend "http://ns.adobe.com/Extensibility/1.0/">
	<!ENTITY ns_ai "http://ns.adobe.com/AdobeIllustrator/10.0/">
	<!ENTITY ns_graphs "http://ns.adobe.com/Graphs/1.0/">
	<!ENTITY ns_vars "http://ns.adobe.com/Variables/1.0/">
	<!ENTITY ns_imrep "http://ns.adobe.com/ImageReplacement/1.0/">
	<!ENTITY ns_sfw "http://ns.adobe.com/SaveForWeb/1.0/">
	<!ENTITY ns_custom "http://ns.adobe.com/GenericCustomNamespace/1.0/">
	<!ENTITY ns_adobe_xpath "http://ns.adobe.com/XPath/1.0/">
]>
<svg version="1.1" id="Layer_1" xmlns:x="&ns_extend;" xmlns:i="&ns_ai;" xmlns:graph="&ns_graphs;"
	 xmlns="http://www.w3.org/2000/svg" xmlns:xlink="http://www.w3.org/1999/xlink" x="0px" y="0px" viewBox="0 0 1072.6 240"
	 style="enable-background:new 0 0 1072.6 240;" xml:space="preserve">
<style type="text/css">
	.st0{fill:#00BE84;}
	.st1{fill:#FFFFFF;}
	.st2{fill:#505BF9;}
	.st3{fill:none;stroke:#505BFE;stroke-width:8;stroke-miterlimit:10;}
</style>
<metadata>
	<sfw  xmlns="&ns_sfw;">
		<slices></slices>
		<sliceSourceBounds  bottomLeftOrigin="true" height="224.1" width="1048.1" x="-43.9" y="-2034"></sliceSourceBounds>
	</sfw>
</metadata>
<path class="st0" d="M710.5,8.5h338.9c8.7,0,14.2,9.3,9.9,16.9l-110,196.7c-2,3.6-5.8,5.8-9.9,5.8H602.8c-8.6,0-14.1-9.3-10-16.8
	L700.5,14.4C702.5,10.8,706.3,8.5,710.5,8.5z"/>
<g>
	<path class="st1" d="M739.9,108.3c1.1-7,5.4-10.8,12.4-10.8h128.2c9.9,0,16.7-4.8,18.3-14.5l0.3-1.6c0.3-2.1,0.3-3.5,0.3-4.6
		c0-7.3-4.8-11-13.7-11H735.9c-7,0-10.2-3.8-9.1-10.8L730,35c1.1-7,5.4-10.8,12.4-10.8h157.8c30.6,0,48.7,9.4,48.7,35.5
		c0,3.2-0.3,7-0.8,10.7l-0.8,5.9c-3,22.3-12.1,35.8-29.3,42.2c12.1,5.4,19.1,15.1,19.1,30.6c0,3.2-0.3,6.5-0.8,10.2l-1.1,6.7
		c-5.4,34.1-22.3,46.2-62.4,46.2H712.8c-7,0-10.2-3.8-9.1-10.8l3.2-20.2c1.1-7,5.4-10.8,12.4-10.8h151.9c10.2,0,17.2-4.8,18.3-14.5
		l0.3-2.1c0.3-1.6,0.3-3,0.3-4c0-7.3-4.8-11-13.7-11H745.8c-7,0-10.2-3.8-9.1-10.7L739.9,108.3z"/>
</g>
<path class="st2" d="M117.7,188.4c3.4,0.6,5,2.6,5,6v28.9c0,3.1-1.6,4.7-4.7,4.7H17.4c-3.1,0-4.7-1.6-4.7-4.7v-28.9
	c0-3.3,1.7-5.3,5-6c8.8-1.5,15.6-2.3,20.4-2.5V50.4c-8.4-0.6-15.2-1.6-20.4-2.8c-3.4-0.6-5-2.6-5-5.9V12.9c0-3.1,1.6-4.7,4.7-4.7
	H118c3.1,0,4.7,1.6,4.7,4.7v28.7c0,3.3-1.7,5.3-5,5.9c-5.7,1.2-12.5,2.2-20.4,2.8v135.5C101.5,186.1,108.3,187,117.7,188.4z"/>
<path class="st3" d="M315.1,64.6c30.2,0,46.8,16.7,46.8,46.8v4.4c0,30.2-16.7,46.8-46.8,46.8H204.5v3.5c0,9.7,6,15.7,15.7,15.7
	h123.9c7.9,0,11.6,3.8,11.6,11.6v23c0,7.9-3.8,11.6-11.6,11.6H202c-29.9,0-50-19.8-50-50v-63.5c0-30.2,20.1-50,50-50H315.1z
	 M204.5,129.9h96.8c6,0,8.2-3.8,8.2-8.2v-2.8c0-4.7-2.2-8.2-8.2-8.2h-81.1c-9.7,0-15.7,6-15.7,15.7V129.9z"/>
<path class="st2" d="M483,214.5L378.7,22.7c-3.5-6.3-0.9-14.8,7.5-14.8h37.7c10.1,0,14.5,3.1,17.9,9.4l82.4,159.7l82.7-159.7
	c3.5-6.3,7.9-9.4,17.9-9.4H661c8.5,0,11,8.5,7.5,14.8L564.1,214.5c-5,9.1-14.1,13.5-25.8,13.5h-29.6
	C497.2,228,488.1,223.6,483,214.5z"/>
</svg>
