<?xml version="1.0" encoding="utf-8"?>
<!-- Generator: Adobe Illustrator 16.0.0, SVG Export Plug-In . SVG Version: 6.00 Build 0)  -->
<!DOCTYPE svg PUBLIC "-//W3C//DTD SVG 1.1//EN" "http://www.w3.org/Graphics/SVG/1.1/DTD/svg11.dtd">
<svg version="1.1" id="Layer_1" xmlns="http://www.w3.org/2000/svg" xmlns:xlink="http://www.w3.org/1999/xlink" x="0px" y="0px"
	 width="145px" height="145px" viewBox="0 0 145 145" enable-background="new 0 0 145 145" xml:space="preserve">
<g>
	<defs>
		<rect id="SVGID_1_" x="20.692" y="46.5" width="103.615" height="52"/>
	</defs>
	<clipPath id="SVGID_2_">
		<use xlink:href="#SVGID_1_"  overflow="visible"/>
	</clipPath>
	<path clip-path="url(#SVGID_2_)" fill="#231F20" d="M70.453,67.144c-0.192,0.044-0.352,0.081-0.514,0.119
		c-11.887,2.758-23.773,5.516-35.661,8.274c-0.138,0.031-0.278,0.061-0.412,0.105c-0.692,0.232-1.012,0.797-0.852,1.515
		c0.129,0.579,0.267,1.157,0.401,1.737c0.493,2.125,0.984,4.25,1.481,6.375c0.156,0.669,0.692,1.097,1.308,1.004
		c0.468-0.069,0.928-0.208,1.386-0.314c-0.331-5.143,3.469-8.271,6.44-8.95c1.705-0.39,3.382-0.327,5.019,0.298
		c2.341,0.896,3.963,2.543,4.928,4.835c6.326-1.469,12.623-2.929,18.936-4.394C72.095,74.22,71.282,70.714,70.453,67.144"/>
	<path clip-path="url(#SVGID_2_)" fill="#231F20" d="M75.279,77.203c3.196-0.741,6.348-1.472,9.504-2.204
		c0.006-0.106,0.015-0.196,0.011-0.286c-0.237-4.504,3.156-8.437,7.647-8.861c3.666-0.347,7.132,1.703,8.589,5.088
		c0.086,0.2,0.171,0.287,0.398,0.221c0.335-0.098,0.681-0.155,1.017-0.245c0.626-0.165,1.019-0.765,0.883-1.389
		c-0.252-1.148-0.527-2.291-0.796-3.435c-0.01-0.044-0.05-0.083-0.084-0.14c-0.986,0.234-1.962,0.525-2.977,0.201
		c-1.024-0.327-1.793-0.954-2.245-1.935c-0.432-0.933-0.479-1.889-0.111-2.855c0.369-0.969,1.07-1.628,2.034-2.087
		c-0.776-0.378-1.523-0.532-2.312-0.509c-1.531,0.045-3.063,0.109-4.596,0.129c-1.683,0.021-3.331,0.208-4.971,0.619
		c-3.02,0.756-6.061,1.424-9.094,2.121c-0.338,0.078-0.687,0.145-1.032,0.149c-1.776,0.021-3.212-1.125-3.626-2.888
		c-0.603-2.564-1.193-5.132-1.789-7.699c-0.034-0.146-0.068-0.294-0.112-0.481c-0.333,0.077-0.62,0.143-0.906,0.21
		c-1.012,0.236-1.351,0.773-1.118,1.778c1.859,8.014,3.719,16.027,5.579,24.042C75.205,76.885,75.236,77.022,75.279,77.203"/>
	<path clip-path="url(#SVGID_2_)" fill="#56BB89" d="M105.675,68.972c-0.541-2.42-1.092-4.838-1.688-7.246
		c-0.78-3.158-3.766-5.435-7.011-5.373c-2.19,0.041-4.379,0.112-6.568,0.193c-0.294,0.011-0.438-0.087-0.591-0.309
		c-1.614-2.329-3.236-4.652-4.858-6.975c-1.602-2.292-3.964-3.199-6.688-2.566c-2.743,0.636-5.486,1.272-8.228,1.909
		c-2.158,0.501-3.321,2.37-2.82,4.534c0.857,3.699,1.716,7.398,2.575,11.097c0.037,0.162,0.075,0.325,0.128,0.55
		c-0.206,0.047-0.367,0.084-0.528,0.122c-11.839,2.747-23.679,5.494-35.518,8.24c-0.201,0.048-0.403,0.09-0.603,0.144
		c-1.887,0.494-3.065,2.355-2.642,4.25c0.632,2.824,1.288,5.642,1.962,8.455c0.39,1.624,1.861,2.753,3.524,2.688
		c0.676-0.025,1.345-0.213,2.007-0.326c1.97,3.963,5.119,6.045,9.554,5.151c4.732-0.952,6.831-4.272,6.915-9.012
		c0.076-0.019,0.176-0.041,0.275-0.063c10.04-2.329,20.082-4.658,30.119-6.996c0.287-0.065,0.4,0,0.514,0.269
		c1.751,4.155,6.801,6.2,10.946,4.446c3.396-1.438,5.405-4.605,5.259-8.297c-0.011-0.233,0.068-0.32,0.284-0.359
		c0.331-0.061,0.656-0.145,0.982-0.225C104.939,72.792,106.115,70.946,105.675,68.972 M47.467,91.144
		c-3.245,0.761-6.521-1.266-7.294-4.51c-0.771-3.239,1.26-6.515,4.515-7.276c3.279-0.771,6.54,1.256,7.298,4.531
		C52.729,87.106,50.685,90.391,47.467,91.144 M77.586,59.278c-0.982,0.228-1.5-0.091-1.727-1.063c-0.59-2.542-1.18-5.083-1.77-7.625
		c-0.029-0.124-0.057-0.247-0.098-0.422c0.169-0.039,0.303-0.07,0.437-0.102c1.484-0.345,2.97-0.691,4.454-1.034
		c1.674-0.385,3.092,0.173,4.076,1.589c1.396,2.01,2.797,4.017,4.195,6.025c0.072,0.103,0.138,0.209,0.237,0.358
		c-0.163,0.038-0.284,0.066-0.405,0.094C83.853,57.825,80.721,58.553,77.586,59.278 M94.628,80.201
		c-3.243,0.753-6.524-1.291-7.278-4.531c-0.756-3.254,1.275-6.509,4.534-7.264c3.264-0.757,6.513,1.26,7.277,4.516
		C99.92,76.152,97.867,79.449,94.628,80.201"/>
	<path clip-path="url(#SVGID_2_)" fill="#56BB89" d="M101.303,61.242c-0.469,0.109-0.824,0.172-1.168,0.275
		c-0.548,0.162-0.909,0.738-0.835,1.283c0.084,0.616,0.582,1.123,1.166,1.072c0.489-0.043,0.967-0.21,1.516-0.337
		C101.753,62.761,101.532,62.016,101.303,61.242"/>
	<path clip-path="url(#SVGID_2_)" fill="#56BB89" d="M79.639,63.792c0.4-0.093,0.801-0.193,1.204-0.278
		c0.647-0.135,1.259,0.256,1.411,0.891c0.151,0.638-0.207,1.279-0.844,1.442c-0.811,0.207-1.627,0.394-2.445,0.569
		c-0.668,0.143-1.271-0.268-1.414-0.933c-0.141-0.649,0.229-1.246,0.883-1.41C78.832,63.972,79.236,63.886,79.639,63.792"/>
	<path clip-path="url(#SVGID_2_)" fill="#56BB89" d="M49.609,84.447c0.445,1.955-0.765,3.881-2.719,4.332
		c-1.973,0.451-3.896-0.76-4.348-2.743c-0.45-1.974,0.764-3.881,2.758-4.331C47.249,81.262,49.162,82.48,49.609,84.447
		 M47.252,84.983c-0.145-0.653-0.778-1.063-1.428-0.927c-0.645,0.136-1.069,0.783-0.933,1.426c0.144,0.678,0.778,1.085,1.452,0.932
		C47.003,86.263,47.398,85.641,47.252,84.983"/>
	<path clip-path="url(#SVGID_2_)" fill="#56BB89" d="M89.724,75.102c-0.452-1.979,0.756-3.891,2.742-4.342
		c1.955-0.444,3.873,0.769,4.32,2.73c0.447,1.962-0.749,3.883-2.705,4.341C92.114,78.291,90.173,77.076,89.724,75.102
		 M93.529,75.466c0.659-0.156,1.053-0.784,0.903-1.438c-0.148-0.648-0.795-1.06-1.438-0.915c-0.664,0.149-1.072,0.804-0.911,1.469
		C92.242,75.237,92.87,75.62,93.529,75.466"/>
	<polygon clip-path="url(#SVGID_2_)" fill="none" stroke="#56BB89" stroke-width="3" stroke-miterlimit="10" points="29.12,97.542 
		123.35,75.854 123.35,97.542 	"/>
	<path clip-path="url(#SVGID_2_)" fill="#56BB89" d="M116.55,60.232c-0.128-0.059-0.218-0.087-0.294-0.138
		c-1.829-1.203-3.657-2.41-5.485-3.616c-0.345-0.228-0.45-0.574-0.277-0.896c0.177-0.328,0.539-0.443,0.872-0.274
		c0.061,0.032,0.119,0.072,0.177,0.11c2.042,1.347,4.083,2.692,6.125,4.039c0.436,0.288,0.512,0.632,0.227,1.063
		c-1.361,2.068-2.726,4.135-4.089,6.203c-0.153,0.231-0.347,0.392-0.647,0.361c-0.275-0.029-0.459-0.175-0.557-0.426
		c-0.092-0.236-0.024-0.448,0.112-0.653c1.194-1.808,2.387-3.618,3.58-5.426C116.357,60.481,116.431,60.392,116.55,60.232"/>
	<path clip-path="url(#SVGID_2_)" fill="#56BB89" d="M112.132,61.145c-0.31-0.199-0.605-0.382-0.896-0.572
		c-0.937-0.616-1.874-1.234-2.81-1.854c-0.31-0.205-0.412-0.479-0.306-0.791c0.124-0.359,0.516-0.535,0.865-0.384
		c0.076,0.033,0.15,0.08,0.221,0.126c1.357,0.895,2.713,1.789,4.07,2.684c0.452,0.299,0.522,0.629,0.228,1.077
		c-0.903,1.37-1.803,2.741-2.714,4.105c-0.093,0.139-0.236,0.271-0.388,0.338c-0.275,0.124-0.562,0.027-0.728-0.189
		c-0.173-0.226-0.188-0.53-0.025-0.778c0.562-0.854,1.125-1.707,1.688-2.559C111.596,61.956,111.856,61.563,112.132,61.145"/>
</g>
<circle fill="none" stroke="#56BB89" stroke-width="7" stroke-miterlimit="10" cx="72.5" cy="72.5" r="67.25"/>
</svg>
