<?xml version="1.0" encoding="utf-8"?>
<!-- Generator: Adobe Illustrator 16.0.0, SVG Export Plug-In . SVG Version: 6.00 Build 0)  -->
<!DOCTYPE svg PUBLIC "-//W3C//DTD SVG 1.1//EN" "http://www.w3.org/Graphics/SVG/1.1/DTD/svg11.dtd">
<svg version="1.1" id="Layer_1" xmlns="http://www.w3.org/2000/svg" xmlns:xlink="http://www.w3.org/1999/xlink" x="0px" y="0px"
	 width="145px" height="145px" viewBox="0 0 145 145" enable-background="new 0 0 145 145" xml:space="preserve">
<circle fill="none" stroke="#56BB89" stroke-width="7" stroke-miterlimit="10" cx="72.5" cy="72.5" r="67.25"/>
<g>
	<path fill="#56BB89" d="M80.304,48.029c-1.249,2.26-1.84,4.646-1.872,7.129c-1.279-0.246-2.526-0.563-3.792-0.718
		c-6.494-0.794-12.272,0.922-17.311,5.084c-2.322,1.918-4.128,4.264-5.486,6.952c-0.463,0.917-0.107,1.893,0.825,2.099
		c0.342,0.077,0.8,0.011,1.101-0.167c3.68-2.188,7.713-3.258,11.91-3.827c4.57-0.619,9.131-0.542,13.677,0.22
		c1.012,0.169,2.017,0.398,3.017,0.635c0.249,0.059,0.496,0.218,0.688,0.393c4.681,4.267,11.136,5.142,16.766,2.263
		c0.131-0.066,0.268-0.121,0.404-0.182c3.13,9.386,1.265,23.63-10.704,32.576c-11.597,8.665-27.723,7.682-38.237-2.261
		c-10.542-9.968-12.437-26.04-4.417-38.09C55.217,47.595,69.741,44.674,80.304,48.029 M76.652,96.046
		c0.081,0.391,0.092,0.813,0.255,1.165c0.311,0.668,0.973,0.844,1.833,0.557c3.171-1.06,5.965-2.748,8.38-5.06
		c2.734-2.619,4.688-5.733,5.853-9.338c0.366-1.135-0.212-1.954-1.372-1.938c-1.84,0.025-3.622,0.357-5.334,1.035
		C80.61,84.706,76.908,90.035,76.652,96.046 M66.731,95.771c-0.047-0.468-0.083-0.923-0.141-1.375
		c-0.921-7.232-7.271-12.851-14.609-12.981c-1.122-0.021-1.826,0.913-1.466,1.973c2.016,5.938,5.795,10.338,11.367,13.188
		c0.957,0.489,1.979,0.863,2.992,1.228c0.994,0.355,1.803-0.233,1.855-1.285C66.742,96.265,66.731,96.011,66.731,95.771
		 M77.248,76.863c0.043-3.005-2.379-5.49-5.412-5.552c-3.026-0.061-5.556,2.396-5.587,5.427c-0.032,3.045,2.374,5.559,5.361,5.603
		C74.727,82.387,77.203,79.979,77.248,76.863"/>
	<path fill="#56BB89" d="M95.117,38.641v5.354v5.412h7.964c-4.173,6.116-8.276,12.128-12.379,18.142
		c-0.036-0.004-0.072-0.009-0.109-0.012V56.756h-7.983c4.172-6.115,8.275-12.128,12.379-18.143L95.117,38.641z"/>
</g>
<rect x="-319.5" y="-225.5" fill="none" width="97.605" height="108.157"/>
</svg>
