<?xml version="1.0" encoding="utf-8"?>
<!-- Generator: Adobe Illustrator 16.0.0, SVG Export Plug-In . SVG Version: 6.00 Build 0)  -->
<!DOCTYPE svg PUBLIC "-//W3C//DTD SVG 1.1//EN" "http://www.w3.org/Graphics/SVG/1.1/DTD/svg11.dtd">
<svg version="1.1" id="Layer_1" xmlns="http://www.w3.org/2000/svg" xmlns:xlink="http://www.w3.org/1999/xlink" x="0px" y="0px"
	 width="145px" height="145px" viewBox="0 0 145 145" enable-background="new 0 0 145 145" xml:space="preserve">
<circle fill="none" stroke="#56BB89" stroke-width="7" stroke-miterlimit="10" cx="72.5" cy="72.5" r="67.25"/>
<rect x="-319.5" y="-225.5" fill="none" width="97.605" height="108.157"/>
<g>
	<path fill="#56BB89" d="M58.373,38.703c3.056,1.481,5.903,3.122,6.079,7.103c0.181,4.073-2.429,7.303-6.434,7.884
		c-3.348,0.486-6.902-1.901-7.91-5.311c-1.063-3.599,0.875-7.475,4.474-8.936c0.649-0.264,1.311-0.496,1.966-0.741H58.373z"/>
	<path fill="#56BB89" d="M85.26,69.73c-5.504,1.88-11.164,2.095-17.261,1.739c0.468,2.143,0.95,4.351,1.476,6.759
		c2.835,0.268,5.631,0.63,8.438,0.773c3.195,0.165,5.469,1.385,7.014,4.382c2.826,5.485,5.961,10.812,8.945,16.214
		c1.291,2.336,0.697,4.838-1.391,6.063c-2.166,1.274-4.381,0.628-5.873-1.854c-2.189-3.643-4.359-7.302-6.41-11.024
		c-0.906-1.647-1.928-2.593-3.961-2.584c-3.434,0.017-6.872-0.236-10.307-0.423c-4.2-0.229-6.102-1.678-6.967-5.803
		c-1.474-7.026-2.938-14.069-3.956-21.171c-0.234-1.629,0.984-3.867,2.207-5.206c1.54-1.685,3.842-1.564,5.899-0.409
		c0.527,0.296,1.038,0.643,1.495,1.038c4.307,3.729,8.933,5.451,14.911,4.431c5.873-1.001,7.553,1.614,5.627,7.189L85.26,69.73z"/>
	<path fill="#56BB89" d="M69.679,99.735c-4.042-0.385-8.574-0.787-13.1-1.256c-3.334-0.347-5.487-2.307-6.029-5.518
		c-1.38-8.184-2.548-16.405-3.746-24.62c-0.297-2.037,0.72-3.432,2.73-3.673c2.051-0.244,3.136,0.965,3.431,2.995
		c0.929,6.416,1.794,12.843,2.884,19.232c0.729,4.28,2,5.244,6.265,5.528c3.737,0.25,7.476,0.469,11.212,0.724
		c2.358,0.162,4.328,0.955,4.066,3.781c-0.248,2.688-2.24,3.029-4.483,2.82C72.007,99.666,71.09,99.735,69.679,99.735"/>
	<path fill="#56BB89" d="M85.146,69.845c3.24-2.898,6.412-5.876,9.766-8.634c0.801-0.659,2.207-0.581,3.334-0.841
		c-0.359,1.03-0.43,2.367-1.131,3.04c-4.459,4.28-9.02,8.457-13.658,12.54c-0.609,0.536-1.859,0.338-2.813,0.479
		c0.25-0.955,0.246-2.108,0.805-2.823c1.105-1.419,2.52-2.596,3.809-3.874C85.26,69.73,85.146,69.845,85.146,69.845"/>
</g>
</svg>
